# xmcd
#
# Track frame offsets:
#  150
#  23612
#  54037
#  76887
#  104325
#  127387
#  151562
#  176300
#
# Disc length: 2653 seconds
#
# Revision: 1
# Processed by: cddbd v1.4PL0 Copyright (c) Steve Scherf et al.
# Submitted via: AltoMP3_Maker 3.0
#
DISCID=4f0a5b08
DTITLE=Toyo Music Orchestra - The Best of Dance Music 3
DYEAR=1900
DGENRE=
TTITLE0=The One You Love
TTITLE1=Richardnia
TTITLE2=Giving
TTITLE3=With Love
TTITLE4=Bless
TTITLE5=Sweet Honey
TTITLE6=What You Say
TTITLE7=Appiont In The World's End
EXTD=
EXTT0=
EXTT1=
EXTT2=
EXTT3=
EXTT4=
EXTT5=
EXTT6=
EXTT7=
PLAYORDER=
